<?xml version="1.0" encoding="UTF-8" standalone="no"?>
<!-- Generator: Adobe Illustrator 18.1.1, SVG Export Plug-In . SVG Version: 6.00 Build 0)  -->

<svg
   xmlns:dc="http://purl.org/dc/elements/1.1/"
   xmlns:cc="http://creativecommons.org/ns#"
   xmlns:rdf="http://www.w3.org/1999/02/22-rdf-syntax-ns#"
   xmlns:svg="http://www.w3.org/2000/svg"
   xmlns="http://www.w3.org/2000/svg"
   xmlns:sodipodi="http://sodipodi.sourceforge.net/DTD/sodipodi-0.dtd"
   xmlns:inkscape="http://www.inkscape.org/namespaces/inkscape"
   version="1.1"
   id="Capa_1"
   x="0px"
   y="0px"
   viewBox="0 0 250.313 250.313"
   style="enable-background:new 0 0 250.313 250.313;"
   xml:space="preserve"
   sodipodi:docname="search.svg"
   inkscape:version="0.92.2 (5c3e80d, 2017-08-06)"><metadata
     id="metadata1211"><rdf:RDF><cc:Work
         rdf:about=""><dc:format>image/svg+xml</dc:format><dc:type
           rdf:resource="http://purl.org/dc/dcmitype/StillImage" /></cc:Work></rdf:RDF></metadata><defs
     id="defs1209" /><sodipodi:namedview
     pagecolor="#ffffff"
     bordercolor="#666666"
     borderopacity="1"
     objecttolerance="10"
     gridtolerance="10"
     guidetolerance="10"
     inkscape:pageopacity="0"
     inkscape:pageshadow="2"
     inkscape:window-width="1920"
     inkscape:window-height="1137"
     id="namedview1207"
     showgrid="false"
     inkscape:zoom="0.94281958"
     inkscape:cx="125.1565"
     inkscape:cy="125.1565"
     inkscape:window-x="-8"
     inkscape:window-y="-8"
     inkscape:window-maximized="1"
     inkscape:current-layer="Capa_1" /><g
     id="Search"
     style="stroke:none;stroke-opacity:0;fill:#000000;fill-opacity:0"><path
       style="fill-rule:evenodd;clip-rule:evenodd;stroke:none;stroke-opacity:0;fill:#000000;fill-opacity:0"
       d="M244.186,214.604l-54.379-54.378c-0.289-0.289-0.628-0.491-0.93-0.76   c10.7-16.231,16.945-35.66,16.945-56.554C205.822,46.075,159.747,0,102.911,0S0,46.075,0,102.911   c0,56.835,46.074,102.911,102.91,102.911c20.895,0,40.323-6.245,56.554-16.945c0.269,0.301,0.47,0.64,0.759,0.929l54.38,54.38   c8.169,8.168,21.413,8.168,29.583,0C252.354,236.017,252.354,222.773,244.186,214.604z M102.911,170.146   c-37.134,0-67.236-30.102-67.236-67.235c0-37.134,30.103-67.236,67.236-67.236c37.132,0,67.235,30.103,67.235,67.236   C170.146,140.044,140.043,170.146,102.911,170.146z"
       id="path1173" /></g><g
     id="g1176" /><g
     id="g1178" /><g
     id="g1180" /><g
     id="g1182" /><g
     id="g1184" /><g
     id="g1186" /><g
     id="g1188" /><g
     id="g1190" /><g
     id="g1192" /><g
     id="g1194" /><g
     id="g1196" /><g
     id="g1198" /><g
     id="g1200" /><g
     id="g1202" /><g
     id="g1204" /></svg>